<svg xmlns="http://www.w3.org/2000/svg" width="29.614" height="27.761" viewBox="0 0 29.614 27.761">
	<path id="Icon_metro-traffic-cone" data-name="Icon metro-traffic-cone" d="M17.995,20.172c3.686,0,6.774-1.252,6.961-2.889-.549-1.536-1.148-3.214-1.735-4.862-.407,1.174-2.661,2.007-5.226,2.007s-4.819-.833-5.226-2.007l-1.734,4.862c.187,1.637,3.273,2.889,6.959,2.889Zm0-10.342c1.734,0,3.342-.537,3.814-1.371C21.16,6.636,20.6,5.07,20.25,4.084c-.234-.659-1.3-1-2.255-1s-2.021.341-2.255,1q-.78,2.184-1.559,4.373C14.653,9.293,16.263,9.83,18,9.83ZM31.537,21.7l-5.792-2.335.668,1.862c-.034,1.973-3.862,3.546-8.419,3.546S9.609,23.2,9.576,21.222l.668-1.862L4.452,21.7c-1.624.654-1.694,1.865-.151,2.69l10.893,5.841a6.648,6.648,0,0,0,5.6,0L31.69,24.386c1.541-.825,1.471-2.036-.153-2.69Z" transform="translate(-3.188 -3.085)" fill="#131790" />
</svg>
